<svg width="232" height="65" viewBox="0 0 232 65" fill="none" xmlns="http://www.w3.org/2000/svg">
<g clip-path="url(#clip0_2_85)">
<path d="M229.1 0C230.701 0 232 1.29876 232 2.90039V62.3496C232 63.9512 230.701 65.25 229.1 65.25H228.691C229.067 64.6803 229.395 64.0656 229.676 63.4053L224.439 61.8213C223.926 62.9212 223.192 63.7648 222.239 64.3516C221.301 64.9234 220.179 65.209 218.873 65.209C216.849 65.2089 215.31 64.5491 214.254 63.2295C213.425 62.1929 212.923 60.8212 212.745 59.1152H229.939C230.144 56.2702 229.829 53.7993 228.993 51.7021C228.157 49.605 226.874 47.9838 225.144 46.8398C223.428 45.6812 221.338 45.1016 218.873 45.1016C216.541 45.1016 214.488 45.6297 212.714 46.6855C210.939 47.7415 209.554 49.2302 208.556 51.1514C207.559 53.058 207.06 55.3095 207.06 57.9053C207.06 60.3105 207.566 62.4373 208.578 64.2852C208.764 64.6201 208.964 64.9416 209.176 65.25H202.149V53.748C202.149 51.1815 201.444 49.1132 200.036 47.5439C198.644 45.9601 196.635 45.1681 194.01 45.168C192.425 45.168 190.987 45.5197 189.697 46.2236C188.482 46.8861 187.501 47.7952 186.754 48.9512C186.172 47.8535 185.349 46.9731 184.285 46.3115C183.097 45.549 181.616 45.168 179.842 45.168C178.229 45.168 176.769 45.5275 175.464 46.2461C174.471 46.7872 173.636 47.4848 172.956 48.3379V45.7617H168.27V65.25H160.454C160.682 64.9076 160.895 64.5502 161.091 64.1758C162.089 62.2839 162.587 60.1055 162.587 57.6416C162.587 55.1924 162.095 53.0287 161.113 51.1514C160.13 49.2596 158.752 47.7786 156.978 46.708C155.203 45.6375 153.12 45.1016 150.729 45.1016C148.398 45.1016 146.344 45.6296 144.569 46.6855C142.795 47.7415 141.41 49.2087 140.412 51.0859C139.415 52.9631 138.916 55.1483 138.916 57.6416C138.916 60.0908 139.401 62.2614 140.368 64.1533C140.568 64.5358 140.786 64.901 141.019 65.25H133.188V37.8428H127.908V51.1738H112.905V37.8428H107.604V65.25H87.5264V65.0771C86.9995 65.1554 86.4929 65.2126 86.0068 65.25H83.54C82.3951 65.1422 81.5601 64.6525 81.0361 63.7793C80.7575 63.3247 80.6036 62.738 80.5742 62.0195C80.5595 61.301 80.5527 60.4649 80.5527 59.5117V49.9199H87.5264V45.7617H80.5527V39.1621H75.2725V45.7617H70.9609V49.9199H75.2725V59.8193C75.2725 61.1685 75.2871 62.3786 75.3164 63.4492C75.3331 64.0568 75.4361 64.6565 75.6182 65.25H65.7412C65.9687 64.9077 66.1819 64.5502 66.3779 64.1758C67.3752 62.2839 67.874 60.1055 67.874 57.6416C67.874 55.1924 67.383 53.0287 66.4004 51.1514C65.4177 49.2595 64.0382 47.7786 62.2637 46.708C60.4892 45.6376 58.4069 45.1016 56.0166 45.1016C53.6848 45.1016 51.631 45.6296 49.8564 46.6855C48.0818 47.7415 46.6956 49.2086 45.6982 51.0859C44.7011 52.9631 44.2031 55.1484 44.2031 57.6416C44.2031 60.0907 44.6864 62.2615 45.6543 64.1533C45.8545 64.5358 46.0726 64.901 46.3057 65.25H38.0527V37.1826H32.751V65.25H25.2646C25.3943 65.0512 25.5203 64.8485 25.6357 64.6377C26.3251 63.3912 26.6699 61.9462 26.6699 60.3037C26.6699 58.7197 26.3758 57.4143 25.7891 56.3877C25.2172 55.3611 24.4845 54.5319 23.5898 53.9014C22.6952 53.2707 21.7638 52.7797 20.7959 52.4277C19.828 52.0758 18.9551 51.7971 18.1777 51.5918L12.502 50.0078C11.7833 49.8171 11.0721 49.5823 10.3682 49.3037C9.67886 49.0103 9.09919 48.6217 8.62988 48.1377C8.16073 47.6391 7.92578 47.0008 7.92578 46.2236C7.92586 45.4025 8.19774 44.6842 8.74023 44.0684C9.29752 43.4524 10.0234 42.9828 10.918 42.6602C11.8273 42.3228 12.8102 42.1611 13.8662 42.1758C14.9514 42.2051 15.9706 42.4253 16.9238 42.8359C17.8918 43.2466 18.7062 43.8477 19.3662 44.6396C20.0407 45.4169 20.4947 46.3631 20.7295 47.4775L26.4277 46.4883C25.9584 44.5377 25.1517 42.8727 24.0078 41.4941C22.864 40.1157 21.4412 39.0673 19.7402 38.3486C18.0389 37.6153 16.1023 37.2412 13.9316 37.2266C11.7905 37.2119 9.83992 37.549 8.08008 38.2383C6.33485 38.9276 4.94167 39.969 3.90039 41.3623C2.87379 42.7409 2.36035 44.4497 2.36035 46.4883C2.36038 47.8813 2.58744 49.0546 3.04199 50.0078C3.5113 50.9464 4.10559 51.7239 4.82422 52.3398C5.55739 52.9411 6.32731 53.4176 7.13379 53.7695C7.95503 54.1069 8.71794 54.3787 9.42188 54.584L17.6055 57.0039C18.192 57.1799 18.7056 57.3923 19.1455 57.6416C19.6002 57.8763 19.9674 58.1403 20.2461 58.4336C20.5392 58.7268 20.7587 59.0642 20.9053 59.4453C21.0519 59.812 21.126 60.2153 21.126 60.6553C21.126 61.6378 20.8103 62.467 20.1797 63.1416C19.5636 63.8161 18.7569 64.3297 17.7598 64.6816C16.7626 65.0335 15.6994 65.2089 14.5703 65.209C12.6637 65.209 10.9764 64.6955 9.50977 63.6689C8.05806 62.6424 7.0972 61.1906 6.62793 59.3135L1.12891 60.1494C1.43276 62.0968 2.12021 63.7969 3.19141 65.25H2.90039C1.29876 65.25 0 63.9512 0 62.3496V2.90039C0 1.29876 1.29876 0 2.90039 0H229.1ZM127.908 56.1455V65.25H112.905V56.1455H127.908ZM178.082 49.8975C179.475 49.8976 180.575 50.3603 181.381 51.2842C182.188 52.208 182.592 53.4982 182.592 55.1553V65.25H173.615V54.8916C173.615 53.4104 174.019 52.208 174.826 51.2842C175.648 50.3602 176.732 49.8975 178.082 49.8975ZM192.359 49.8975C193.737 49.8975 194.831 50.3602 195.637 51.2842C196.443 52.1934 196.847 53.4621 196.847 55.0898V65.25H187.871V54.8916C187.871 53.8504 188.069 52.956 188.466 52.208C188.861 51.4455 189.396 50.8735 190.071 50.4922C190.746 50.0963 191.509 49.8975 192.359 49.8975ZM56.0166 50.0742C58.0991 50.0743 59.6609 50.7631 60.7021 52.1416C61.7435 53.5056 62.2637 55.339 62.2637 57.6416C62.2637 59.8708 61.7512 61.6897 60.7246 63.0977C59.6981 64.5055 58.1284 65.2089 56.0166 65.209C53.978 65.209 52.4309 64.527 51.375 63.1631C50.3337 61.7844 49.8125 59.9441 49.8125 57.6416C49.8125 56.1458 50.0327 54.8333 50.4727 53.7041C50.9126 52.5602 51.587 51.6727 52.4961 51.042C53.4201 50.3967 54.594 50.0742 56.0166 50.0742ZM150.729 50.0742C152.812 50.0743 154.374 50.7631 155.416 52.1416C156.457 53.5056 156.978 55.3391 156.978 57.6416C156.978 59.8709 156.464 61.6897 155.437 63.0977C154.411 64.5053 152.841 65.209 150.729 65.209C148.691 65.209 147.143 64.527 146.088 63.1631C145.046 61.7844 144.526 59.944 144.526 57.6416C144.526 56.1459 144.746 54.8333 145.186 53.7041C145.626 52.5601 146.301 51.6727 147.21 51.042C148.134 50.3968 149.307 50.0742 150.729 50.0742ZM219.094 49.7441C221.014 49.7441 222.423 50.3375 223.317 51.5254C223.953 52.3691 224.365 53.5648 224.557 55.1113H212.874C213.117 53.7397 213.576 52.6249 214.254 51.7676C215.31 50.4185 216.923 49.7441 219.094 49.7441Z" fill="#006AFF"/>
</g>
<defs>
<clipPath id="clip0_2_85">
<rect width="232" height="65" rx="4" fill="white"/>
</clipPath>
</defs>
</svg>
