<svg width="65" height="65" viewBox="0 0 65 65" fill="none" xmlns="http://www.w3.org/2000/svg">
<g clip-path="url(#clip0_2_108)">
<path d="M229.1 0C230.701 0 232 1.29876 232 2.90039V62.3496C232 63.9512 230.701 65.25 229.1 65.25H226.977C228.128 64.2092 229.029 62.9285 229.676 61.4053L224.439 59.8213C223.926 60.9212 223.192 61.7648 222.239 62.3516C221.301 62.9234 220.179 63.209 218.873 63.209C216.849 63.2089 215.31 62.5491 214.254 61.2295C213.425 60.1929 212.923 58.8212 212.745 57.1152H229.939C230.144 54.2702 229.829 51.7993 228.993 49.7021C228.157 47.605 226.874 45.9838 225.144 44.8398C223.428 43.6812 221.338 43.1016 218.873 43.1016C216.541 43.1016 214.488 43.6297 212.714 44.6855C210.939 45.7415 209.554 47.2302 208.556 49.1514C207.559 51.058 207.06 53.3095 207.06 55.9053C207.06 58.3105 207.566 60.4373 208.578 62.2852C209.213 63.4278 209.999 64.4158 210.937 65.25H202.149V51.748C202.149 49.1815 201.444 47.1132 200.036 45.5439C198.644 43.9601 196.635 43.1681 194.01 43.168C192.425 43.168 190.987 43.5197 189.697 44.2236C188.482 44.8861 187.501 45.7952 186.754 46.9512C186.172 45.8535 185.349 44.9731 184.285 44.3115C183.097 43.549 181.616 43.168 179.842 43.168C178.229 43.168 176.769 43.5275 175.464 44.2461C174.471 44.7872 173.636 45.4848 172.956 46.3379V43.7617H168.27V65.25H158.754C159.691 64.386 160.47 63.3617 161.091 62.1758C162.089 60.2839 162.587 58.1055 162.587 55.6416C162.587 53.1924 162.095 51.0287 161.113 49.1514C160.13 47.2596 158.752 45.7786 156.978 44.708C155.203 43.6375 153.12 43.1016 150.729 43.1016C148.398 43.1016 146.344 43.6296 144.569 44.6855C142.795 45.7415 141.41 47.2087 140.412 49.0859C139.415 50.9631 138.916 53.1483 138.916 55.6416C138.916 58.0908 139.401 60.2614 140.368 62.1533C140.994 63.3496 141.782 64.3813 142.729 65.25H133.188V35.8428H127.908V49.1738H112.905V35.8428H107.604V65.25H87.5264V63.0771C86.0451 63.2971 84.7249 63.3555 83.5664 63.2529C82.4078 63.1502 81.5641 62.6592 81.0361 61.7793C80.7575 61.3247 80.6036 60.738 80.5742 60.0195C80.5595 59.301 80.5527 58.4649 80.5527 57.5117V47.9199H87.5264V43.7617H80.5527V37.1621H75.2725V43.7617H70.9609V47.9199H75.2725V57.8193C75.2725 59.1685 75.2871 60.3786 75.3164 61.4492C75.3457 62.5198 75.6321 63.569 76.1748 64.5957C76.3008 64.8266 76.4399 65.0442 76.5898 65.25H64.041C64.9778 64.3861 65.7571 63.3616 66.3779 62.1758C67.3752 60.2839 67.874 58.1055 67.874 55.6416C67.874 53.1924 67.383 51.0287 66.4004 49.1514C65.4177 47.2595 64.0382 45.7786 62.2637 44.708C60.4892 43.6376 58.4069 43.1016 56.0166 43.1016C53.6848 43.1016 51.631 43.6296 49.8564 44.6855C48.0818 45.7415 46.6956 47.2086 45.6982 49.0859C44.7011 50.9631 44.2031 53.1484 44.2031 55.6416C44.2031 58.0907 44.6864 60.2615 45.6543 62.1533C46.2805 63.3496 47.0688 64.3812 48.0166 65.25H38.0527V35.1826H32.751V65.25H23.4863C24.3644 64.5162 25.0828 63.6475 25.6357 62.6377C26.3251 61.3912 26.6699 59.9462 26.6699 58.3037C26.6699 56.7197 26.3758 55.4143 25.7891 54.3877C25.2172 53.3611 24.4845 52.5319 23.5898 51.9014C22.6952 51.2707 21.7638 50.7797 20.7959 50.4277C19.828 50.0758 18.9551 49.7971 18.1777 49.5918L12.502 48.0078C11.7833 47.8171 11.0721 47.5823 10.3682 47.3037C9.67886 47.0103 9.09919 46.6217 8.62988 46.1377C8.16073 45.6391 7.92578 45.0008 7.92578 44.2236C7.92586 43.4025 8.19774 42.6842 8.74023 42.0684C9.29752 41.4524 10.0234 40.9828 10.918 40.6602C11.8273 40.3228 12.8102 40.1611 13.8662 40.1758C14.9514 40.2051 15.9706 40.4253 16.9238 40.8359C17.8918 41.2466 18.7062 41.8477 19.3662 42.6396C20.0407 43.4169 20.4947 44.3631 20.7295 45.4775L26.4277 44.4883C25.9584 42.5377 25.1517 40.8727 24.0078 39.4941C22.864 38.1157 21.4412 37.0673 19.7402 36.3486C18.0389 35.6153 16.1023 35.2412 13.9316 35.2266C11.7905 35.2119 9.83992 35.549 8.08008 36.2383C6.33485 36.9276 4.94167 37.969 3.90039 39.3623C2.87379 40.7409 2.36035 42.4497 2.36035 44.4883C2.36038 45.8813 2.58744 47.0546 3.04199 48.0078C3.5113 48.9464 4.10559 49.7239 4.82422 50.3398C5.55739 50.9411 6.32731 51.4176 7.13379 51.7695C7.95503 52.1069 8.71794 52.3787 9.42188 52.584L17.6055 55.0039C18.192 55.1799 18.7056 55.3923 19.1455 55.6416C19.6002 55.8763 19.9674 56.1403 20.2461 56.4336C20.5392 56.7268 20.7587 57.0642 20.9053 57.4453C21.0519 57.812 21.126 58.2153 21.126 58.6553C21.126 59.6378 20.8103 60.467 20.1797 61.1416C19.5636 61.8161 18.7569 62.3297 17.7598 62.6816C16.7626 63.0335 15.6994 63.2089 14.5703 63.209C12.6637 63.209 10.9764 62.6955 9.50977 61.6689C8.05806 60.6424 7.0972 59.1906 6.62793 57.3135L1.12891 58.1494C1.45157 60.2173 2.20659 62.007 3.39453 63.5176C3.90976 64.1584 4.4845 64.7357 5.11816 65.25H2.90039C1.29876 65.25 0 63.9512 0 62.3496V2.90039C0 1.29876 1.29876 0 2.90039 0H229.1ZM127.908 54.1455V65.25H112.905V54.1455H127.908ZM178.082 47.8975C179.475 47.8976 180.575 48.3603 181.381 49.2842C182.188 50.208 182.592 51.4982 182.592 53.1553V65.25H173.615V52.8916C173.615 51.4104 174.019 50.208 174.826 49.2842C175.648 48.3602 176.732 47.8975 178.082 47.8975ZM192.359 47.8975C193.737 47.8975 194.831 48.3602 195.637 49.2842C196.443 50.1934 196.847 51.4621 196.847 53.0898V65.25H187.871V52.8916C187.871 51.8504 188.069 50.956 188.466 50.208C188.861 49.4455 189.396 48.8735 190.071 48.4922C190.746 48.0963 191.509 47.8975 192.359 47.8975ZM56.0166 48.0742C58.0991 48.0743 59.6609 48.7631 60.7021 50.1416C61.7435 51.5056 62.2637 53.339 62.2637 55.6416C62.2637 57.8708 61.7512 59.6897 60.7246 61.0977C59.6981 62.5055 58.1284 63.2089 56.0166 63.209C53.978 63.209 52.4309 62.527 51.375 61.1631C50.3337 59.7844 49.8125 57.9441 49.8125 55.6416C49.8125 54.1458 50.0327 52.8333 50.4727 51.7041C50.9126 50.5602 51.587 49.6727 52.4961 49.042C53.4201 48.3967 54.594 48.0742 56.0166 48.0742ZM150.729 48.0742C152.812 48.0743 154.374 48.7631 155.416 50.1416C156.457 51.5056 156.978 53.3391 156.978 55.6416C156.978 57.8709 156.464 59.6897 155.437 61.0977C154.411 62.5053 152.841 63.209 150.729 63.209C148.691 63.209 147.143 62.527 146.088 61.1631C145.046 59.7844 144.526 57.944 144.526 55.6416C144.526 54.1459 144.746 52.8333 145.186 51.7041C145.626 50.5601 146.301 49.6727 147.21 49.042C148.134 48.3968 149.307 48.0742 150.729 48.0742ZM219.094 47.7441C221.014 47.7441 222.423 48.3375 223.317 49.5254C223.953 50.3691 224.365 51.5648 224.557 53.1113H212.874C213.117 51.7397 213.576 50.6249 214.254 49.7676C215.31 48.4185 216.923 47.7441 219.094 47.7441Z" fill="#006AFF"/>
</g>
<defs>
<clipPath id="clip0_2_108">
<rect width="65" height="65" rx="32.5" fill="white"/>
</clipPath>
</defs>
</svg>
